<svg version="1.1" id="Layer_1" xmlns="http://www.w3.org/2000/svg" xmlns:xlink="http://www.w3.org/1999/xlink" x="0px" y="0px"
	 width="100%" viewBox="0 0 542 230" enable-background="new 0 0 542 230" xml:space="preserve">
<path fill="#121212" opacity="1.000000" stroke="none" 
	d="
M515.000000,231.000000 
	C343.333344,231.000000 172.166672,231.000000 1.000000,231.000000 
	C1.000000,154.333328 1.000000,77.666664 1.000000,1.000000 
	C181.666672,1.000000 362.333344,1.000000 543.000000,1.000000 
	C543.000000,77.666664 543.000000,154.333328 543.000000,231.000000 
	C533.833313,231.000000 524.666687,231.000000 515.000000,231.000000 
M290.341949,146.346237 
	C292.059357,149.726334 294.562592,149.737244 297.346710,147.845871 
	C300.314178,145.829971 298.867157,143.613937 297.506378,141.392929 
	C294.298492,136.157135 291.140289,130.890945 287.978149,125.663795 
	C294.134186,120.993782 294.735626,119.768051 294.745544,112.078819 
	C294.748749,109.582466 294.862213,107.077484 294.698486,104.591385 
	C294.274017,98.146622 290.241241,94.169830 283.746033,94.013466 
	C277.092529,93.853287 270.431488,94.035774 263.775177,93.951820 
	C260.426941,93.909592 258.903961,95.351097 258.913849,98.725128 
	C258.958252,113.870461 258.971863,129.016190 258.900665,144.161316 
	C258.885803,147.323029 260.326599,148.870926 263.335571,148.864670 
	C266.393097,148.858322 267.764191,147.138565 267.737305,144.075745 
	C267.677399,137.252502 267.721008,130.428360 267.721527,123.604576 
	C267.722076,116.192665 267.721649,108.780762 267.721649,101.040649 
	C272.638397,101.040649 276.962036,100.800903 281.233093,101.170006 
	C282.738586,101.300117 285.281342,102.843681 285.348572,103.872673 
	C285.635437,108.263832 286.011719,113.009773 284.565552,116.973198 
	C283.999786,118.523872 278.733429,118.377975 275.599243,118.957687 
	C274.954529,119.076942 273.999786,118.708290 273.655243,119.044052 
	C272.534393,120.136360 271.005798,121.377060 270.848785,122.704353 
	C270.732330,123.688683 272.701599,125.962677 273.406189,125.833366 
	C278.290100,124.937164 279.672974,128.439819 281.512756,131.583832 
	C284.284637,136.320740 287.143036,141.007034 290.341949,146.346237 
M381.025940,132.412292 
	C381.025970,133.245148 381.018188,134.078079 381.027222,134.910828 
	C381.126953,144.099564 385.002594,148.001709 394.071381,148.026825 
	C398.568787,148.039291 403.068970,148.125748 407.563080,148.003006 
	C414.259399,147.820114 418.465210,143.709900 418.533752,136.994034 
	C418.662933,124.335854 418.536285,111.675240 418.602295,99.016090 
	C418.618561,95.896980 417.899719,93.919182 414.196747,93.913742 
	C410.535217,93.908371 409.746613,95.740425 409.784485,98.945282 
	C409.898590,108.605118 409.766846,118.267601 409.838074,127.928261 
	C409.943695,142.250458 410.415649,140.871231 396.413605,141.026871 
	C391.665649,141.079651 389.860565,139.152908 389.925659,134.472427 
	C390.087708,122.814636 389.937805,111.152824 390.003632,99.493141 
	C390.021576,96.312538 389.638794,93.919884 385.545685,93.914925 
	C381.491943,93.910011 380.988037,96.256905 381.004974,99.455254 
	C381.061493,110.115578 381.026123,120.776390 381.025940,132.412292 
M457.546112,133.828674 
	C455.925201,131.110672 454.467743,128.276260 452.637909,125.707039 
	C450.770264,123.084694 450.607971,120.945747 452.493042,118.104179 
	C455.986603,112.837875 458.969818,107.234741 462.219421,101.804092 
	C463.744080,99.256104 465.401123,96.751884 461.649261,94.700668 
	C458.351257,92.897591 456.486389,94.528542 454.860718,97.387466 
	C451.596558,103.127792 448.127899,108.751877 444.348450,115.086266 
	C440.376099,108.474564 436.768341,102.524986 433.220123,96.540108 
	C431.503540,93.644615 429.297455,93.262131 426.514099,94.934158 
	C423.669098,96.643204 424.562500,98.721939 425.839966,100.886505 
	C429.308624,106.764038 432.631439,112.733582 436.288574,118.490997 
	C437.758087,120.804482 437.712189,122.473587 436.263611,124.743744 
	C432.862823,130.073135 429.764465,135.595322 426.533661,141.033478 
	C425.045105,143.539032 423.311066,146.084442 426.976959,148.218430 
	C430.514099,150.277451 432.392181,148.360397 434.084930,145.363708 
	C437.231934,139.792450 440.604950,134.348862 444.165558,128.379990 
	C447.925964,134.715973 451.331390,140.239197 454.507263,145.891418 
	C456.208130,148.918518 458.273071,150.017273 461.391418,148.160812 
	C464.695740,146.193680 463.432098,143.767395 461.979218,141.340698 
	C460.610382,139.054428 459.272400,136.749710 457.546112,133.828674 
M183.185364,108.595825 
	C183.185364,106.162857 183.185364,103.729897 183.185364,101.031937 
	C188.123856,101.031937 192.450653,100.804100 196.730270,101.153740 
	C198.257645,101.278526 200.870514,102.723030 200.934738,103.700111 
	C201.267410,108.761185 201.674942,114.065132 200.389725,118.835388 
	C199.998596,120.287140 194.304947,120.319817 191.034485,120.975830 
	C190.551712,121.072655 189.807693,120.817337 189.580734,121.074532 
	C188.609680,122.175056 187.086227,123.420158 187.108887,124.586418 
	C187.131210,125.735207 188.698044,127.737854 189.721130,127.826889 
	C193.679535,128.171356 197.753326,128.326401 201.668106,127.755814 
	C206.887100,126.995132 210.023193,122.919319 210.176407,117.563889 
	C210.295364,113.405952 210.265213,109.240822 210.189819,105.080917 
	C210.067719,98.343674 206.059647,94.180550 199.326721,94.022911 
	C192.838623,93.870995 186.341064,94.109230 179.853775,93.940727 
	C175.936539,93.838974 174.563858,95.519707 174.591736,99.317024 
	C174.700516,114.130478 174.678665,128.945419 174.602097,143.759293 
	C174.585648,146.943176 175.486801,148.968735 179.037903,148.894730 
	C182.639664,148.819672 183.252487,146.613525 183.224716,143.526657 
	C183.122833,132.208817 183.184967,120.889503 183.185364,108.595825 
M160.099304,113.789040 
	C162.409851,109.374702 164.727051,104.963844 167.028427,100.544724 
	C168.380661,97.948181 169.854034,95.207764 166.039948,93.452431 
	C162.677231,91.904831 160.891525,93.831779 159.434296,96.706078 
	C156.069473,103.342987 152.525162,109.888901 148.815170,116.923935 
	C147.887680,115.641769 147.242569,114.933014 146.803482,114.113823 
	C143.508713,107.966751 140.217209,101.817284 137.004654,95.627068 
	C135.563766,92.850632 133.425491,92.302193 130.791809,93.523964 
	C127.971062,94.832520 128.188248,97.016846 129.434219,99.372566 
	C130.288971,100.988609 131.078278,102.639610 131.947311,104.247711 
	C138.783249,116.897255 146.954193,129.144699 144.038361,144.708954 
	C144.008514,144.868271 143.976639,145.114883 144.062759,145.195129 
	C145.444153,146.482269 146.688766,148.560120 148.270737,148.864014 
	C152.549042,149.685898 153.273087,146.594131 152.932358,143.259933 
	C151.868103,132.845551 153.682846,123.155266 160.099304,113.789040 
M219.691284,108.537643 
	C219.691574,119.696457 219.820236,130.857452 219.629944,142.013016 
	C219.552216,146.569351 221.264648,148.254684 225.822144,148.082123 
	C232.973511,147.811325 240.142868,147.981415 247.304214,148.025848 
	C249.791382,148.041275 252.092102,148.048431 252.095795,144.597275 
	C252.099289,141.334976 250.132660,140.913986 247.464279,140.957336 
	C241.188660,141.059341 234.910263,140.990021 228.521576,140.990021 
	C228.521576,127.413254 228.521576,114.362274 228.521576,101.006355 
	C234.971176,101.006355 241.124207,101.204086 247.244995,100.847717 
	C248.546021,100.771980 249.729477,98.677055 250.967087,97.512405 
	C249.710663,96.339211 248.535355,94.277710 247.183090,94.154259 
	C242.558167,93.732002 237.870560,93.945618 233.207779,93.997841 
	C218.067169,94.167397 219.790695,91.777336 219.691284,108.537643 
M350.801697,116.500244 
	C350.800446,110.502235 350.756073,104.503792 350.815735,98.506386 
	C350.846497,95.412743 349.580475,93.946526 346.354492,93.926582 
	C343.083862,93.906364 341.962280,95.384636 341.976471,98.500931 
	C342.043884,113.329063 342.019806,128.157700 341.994537,142.986099 
	C341.988617,146.468277 343.416473,148.140320 347.111938,148.072342 
	C355.106628,147.925262 363.105988,148.000977 371.103119,148.043655 
	C373.559113,148.056763 375.873657,148.164413 375.957611,144.698181 
	C376.047150,141.001419 373.696259,140.914307 370.967316,140.946686 
	C364.350708,141.025208 357.732513,140.972214 350.801666,140.972214 
	C350.801666,132.768753 350.801666,125.134438 350.801697,116.500244 
M323.503845,101.012421 
	C326.001068,101.012146 328.501404,100.933861 330.994629,101.033447 
	C333.511475,101.133965 335.252258,100.566696 335.190094,97.551277 
	C335.131378,94.702408 333.615265,93.920692 331.003113,93.955612 
	C323.845673,94.051292 316.684906,94.068726 309.528076,93.953529 
	C306.164276,93.899368 304.646545,95.246681 304.658325,98.651329 
	C304.709991,113.634430 304.646332,128.617920 304.703247,143.600983 
	C304.717834,147.438156 307.692596,149.512360 310.952698,147.653366 
	C312.210175,146.936325 313.049927,144.453827 313.070343,142.763474 
	C313.236816,128.997223 313.163971,115.228065 313.163971,101.012421 
	C316.619934,101.012421 319.575043,101.012421 323.503845,101.012421 
M85.825600,98.829018 
	C85.825348,113.486206 85.861053,128.143555 85.795311,142.800446 
	C85.781738,145.827972 86.209068,148.013931 90.000084,148.065994 
	C93.590324,148.115280 94.567238,146.391922 94.549362,143.132355 
	C94.468086,128.309052 94.608940,113.483536 94.371605,98.663582 
	C94.346519,97.097244 92.651436,94.655746 91.231293,94.208946 
	C88.599915,93.381058 85.754074,93.945549 85.825600,98.829018 
M114.565414,98.151085 
	C114.564369,113.146523 114.608856,128.142212 114.526619,143.137207 
	C114.508636,146.415756 115.539803,148.104691 119.101433,148.061859 
	C122.514053,148.020813 123.258362,146.265106 123.243927,143.286743 
	C123.172050,128.458252 123.303589,113.627846 123.078758,98.802429 
	C123.054375,97.194664 121.512482,94.722145 120.114769,94.225288 
	C117.862526,93.424660 114.956665,93.612907 114.565414,98.151085 
M110.482849,119.491051 
	C109.966286,115.834785 107.959190,113.354218 104.205612,114.149658 
	C102.184448,114.577972 99.705894,116.405701 98.909248,118.242111 
	C97.632530,121.185135 99.352928,123.967010 102.491066,124.765877 
	C106.274010,125.728882 109.467262,124.741737 110.482849,119.491051 
M244.475906,123.061897 
	C244.918991,122.005470 245.745117,120.945786 245.736145,119.893211 
	C245.704239,116.154335 243.753967,114.039062 239.886002,113.975616 
	C236.319031,113.917099 234.039322,115.688538 233.901428,119.216576 
	C233.753448,123.002853 235.982727,125.107384 239.808426,124.961876 
	C241.200500,124.908928 242.563828,124.099609 244.475906,123.061897 
M324.566620,125.028938 
	C328.401611,125.065842 330.685211,123.077393 330.642792,119.347878 
	C330.606812,116.184082 328.621521,114.199631 325.238586,113.973740 
	C321.984314,113.756447 319.558502,115.032547 318.948547,118.289040 
	C318.262054,121.954170 319.933319,124.372025 324.566620,125.028938 
z"/>
<path fill="#F2F2F2" opacity="1.000000" stroke="none" 
	d="
M290.153320,146.030548 
	C287.143036,141.007034 284.284637,136.320740 281.512756,131.583832 
	C279.672974,128.439819 278.290100,124.937164 273.406189,125.833366 
	C272.701599,125.962677 270.732330,123.688683 270.848785,122.704353 
	C271.005798,121.377060 272.534393,120.136360 273.655243,119.044052 
	C273.999786,118.708290 274.954529,119.076942 275.599243,118.957687 
	C278.733429,118.377975 283.999786,118.523872 284.565552,116.973198 
	C286.011719,113.009773 285.635437,108.263832 285.348572,103.872673 
	C285.281342,102.843681 282.738586,101.300117 281.233093,101.170006 
	C276.962036,100.800903 272.638397,101.040649 267.721649,101.040649 
	C267.721649,108.780762 267.722076,116.192665 267.721527,123.604576 
	C267.721008,130.428360 267.677399,137.252502 267.737305,144.075745 
	C267.764191,147.138565 266.393097,148.858322 263.335571,148.864670 
	C260.326599,148.870926 258.885803,147.323029 258.900665,144.161316 
	C258.971863,129.016190 258.958252,113.870461 258.913849,98.725128 
	C258.903961,95.351097 260.426941,93.909592 263.775177,93.951820 
	C270.431488,94.035774 277.092529,93.853287 283.746033,94.013466 
	C290.241241,94.169830 294.274017,98.146622 294.698486,104.591385 
	C294.862213,107.077484 294.748749,109.582466 294.745544,112.078819 
	C294.735626,119.768051 294.134186,120.993782 287.978149,125.663795 
	C291.140289,130.890945 294.298492,136.157135 297.506378,141.392929 
	C298.867157,143.613937 300.314178,145.829971 297.346710,147.845871 
	C294.562592,149.737244 292.059357,149.726334 290.153320,146.030548 
z"/>
<path fill="#F0F0F0" opacity="1.000000" stroke="none" 
	d="
M381.025940,131.924652 
	C381.026123,120.776390 381.061493,110.115578 381.004974,99.455254 
	C380.988037,96.256905 381.491943,93.910011 385.545685,93.914925 
	C389.638794,93.919884 390.021576,96.312538 390.003632,99.493141 
	C389.937805,111.152824 390.087708,122.814636 389.925659,134.472427 
	C389.860565,139.152908 391.665649,141.079651 396.413605,141.026871 
	C410.415649,140.871231 409.943695,142.250458 409.838074,127.928261 
	C409.766846,118.267601 409.898590,108.605118 409.784485,98.945282 
	C409.746613,95.740425 410.535217,93.908371 414.196747,93.913742 
	C417.899719,93.919182 418.618561,95.896980 418.602295,99.016090 
	C418.536285,111.675240 418.662933,124.335854 418.533752,136.994034 
	C418.465210,143.709900 414.259399,147.820114 407.563080,148.003006 
	C403.068970,148.125748 398.568787,148.039291 394.071381,148.026825 
	C385.002594,148.001709 381.126953,144.099564 381.027222,134.910828 
	C381.018188,134.078079 381.025970,133.245148 381.025940,131.924652 
z"/>
<path fill="#F2F2F2" opacity="1.000000" stroke="none" 
	d="
M457.733490,134.140900 
	C459.272400,136.749710 460.610382,139.054428 461.979218,141.340698 
	C463.432098,143.767395 464.695740,146.193680 461.391418,148.160812 
	C458.273071,150.017273 456.208130,148.918518 454.507263,145.891418 
	C451.331390,140.239197 447.925964,134.715973 444.165558,128.379990 
	C440.604950,134.348862 437.231934,139.792450 434.084930,145.363708 
	C432.392181,148.360397 430.514099,150.277451 426.976959,148.218430 
	C423.311066,146.084442 425.045105,143.539032 426.533661,141.033478 
	C429.764465,135.595322 432.862823,130.073135 436.263611,124.743744 
	C437.712189,122.473587 437.758087,120.804482 436.288574,118.490997 
	C432.631439,112.733582 429.308624,106.764038 425.839966,100.886505 
	C424.562500,98.721939 423.669098,96.643204 426.514099,94.934158 
	C429.297455,93.262131 431.503540,93.644615 433.220123,96.540108 
	C436.768341,102.524986 440.376099,108.474564 444.348450,115.086266 
	C448.127899,108.751877 451.596558,103.127792 454.860718,97.387466 
	C456.486389,94.528542 458.351257,92.897591 461.649261,94.700668 
	C465.401123,96.751884 463.744080,99.256104 462.219421,101.804092 
	C458.969818,107.234741 455.986603,112.837875 452.493042,118.104179 
	C450.607971,120.945747 450.770264,123.084694 452.637909,125.707039 
	C454.467743,128.276260 455.925201,131.110672 457.733490,134.140900 
z"/>
<path fill="#F7F7F7" opacity="1.000000" stroke="none" 
	d="
M183.185364,109.083282 
	C183.184967,120.889503 183.122833,132.208817 183.224716,143.526657 
	C183.252487,146.613525 182.639664,148.819672 179.037903,148.894730 
	C175.486801,148.968735 174.585648,146.943176 174.602097,143.759293 
	C174.678665,128.945419 174.700516,114.130478 174.591736,99.317024 
	C174.563858,95.519707 175.936539,93.838974 179.853775,93.940727 
	C186.341064,94.109230 192.838623,93.870995 199.326721,94.022911 
	C206.059647,94.180550 210.067719,98.343674 210.189819,105.080917 
	C210.265213,109.240822 210.295364,113.405952 210.176407,117.563889 
	C210.023193,122.919319 206.887100,126.995132 201.668106,127.755814 
	C197.753326,128.326401 193.679535,128.171356 189.721130,127.826889 
	C188.698044,127.737854 187.131210,125.735207 187.108887,124.586418 
	C187.086227,123.420158 188.609680,122.175056 189.580734,121.074532 
	C189.807693,120.817337 190.551712,121.072655 191.034485,120.975830 
	C194.304947,120.319817 199.998596,120.287140 200.389725,118.835388 
	C201.674942,114.065132 201.267410,108.761185 200.934738,103.700111 
	C200.870514,102.723030 198.257645,101.278526 196.730270,101.153740 
	C192.450653,100.804100 188.123856,101.031937 183.185364,101.031937 
	C183.185364,103.729897 183.185364,106.162857 183.185364,109.083282 
z"/>
<path fill="#F2F2F2" opacity="1.000000" stroke="none" 
	d="
M159.951859,114.131577 
	C153.682846,123.155266 151.868103,132.845551 152.932358,143.259933 
	C153.273087,146.594131 152.549042,149.685898 148.270737,148.864014 
	C146.688766,148.560120 145.444153,146.482269 144.062759,145.195129 
	C143.976639,145.114883 144.008514,144.868271 144.038361,144.708954 
	C146.954193,129.144699 138.783249,116.897255 131.947311,104.247711 
	C131.078278,102.639610 130.288971,100.988609 129.434219,99.372566 
	C128.188248,97.016846 127.971062,94.832520 130.791809,93.523964 
	C133.425491,92.302193 135.563766,92.850632 137.004654,95.627068 
	C140.217209,101.817284 143.508713,107.966751 146.803482,114.113823 
	C147.242569,114.933014 147.887680,115.641769 148.815170,116.923935 
	C152.525162,109.888901 156.069473,103.342987 159.434296,96.706078 
	C160.891525,93.831779 162.677231,91.904831 166.039948,93.452431 
	C169.854034,95.207764 168.380661,97.948181 167.028427,100.544724 
	C164.727051,104.963844 162.409851,109.374702 159.951859,114.131577 
z"/>
<path fill="#F9F9F9" opacity="1.000000" stroke="none" 
	d="
M219.691315,108.046646 
	C219.790695,91.777336 218.067169,94.167397 233.207779,93.997841 
	C237.870560,93.945618 242.558167,93.732002 247.183090,94.154259 
	C248.535355,94.277710 249.710663,96.339211 250.967087,97.512405 
	C249.729477,98.677055 248.546021,100.771980 247.244995,100.847717 
	C241.124207,101.204086 234.971176,101.006355 228.521576,101.006355 
	C228.521576,114.362274 228.521576,127.413254 228.521576,140.990021 
	C234.910263,140.990021 241.188660,141.059341 247.464279,140.957336 
	C250.132660,140.913986 252.099289,141.334976 252.095795,144.597275 
	C252.092102,148.048431 249.791382,148.041275 247.304214,148.025848 
	C240.142868,147.981415 232.973511,147.811325 225.822144,148.082123 
	C221.264648,148.254684 219.552216,146.569351 219.629944,142.013016 
	C219.820236,130.857452 219.691574,119.696457 219.691315,108.046646 
z"/>
<path fill="#F1F1F1" opacity="1.000000" stroke="none" 
	d="
M350.801697,117.000183 
	C350.801666,125.134438 350.801666,132.768753 350.801666,140.972214 
	C357.732513,140.972214 364.350708,141.025208 370.967316,140.946686 
	C373.696259,140.914307 376.047150,141.001419 375.957611,144.698181 
	C375.873657,148.164413 373.559113,148.056763 371.103119,148.043655 
	C363.105988,148.000977 355.106628,147.925262 347.111938,148.072342 
	C343.416473,148.140320 341.988617,146.468277 341.994537,142.986099 
	C342.019806,128.157700 342.043884,113.329063 341.976471,98.500931 
	C341.962280,95.384636 343.083862,93.906364 346.354492,93.926582 
	C349.580475,93.946526 350.846497,95.412743 350.815735,98.506386 
	C350.756073,104.503792 350.800446,110.502235 350.801697,117.000183 
z"/>
<path fill="#F8F8F8" opacity="1.000000" stroke="none" 
	d="
M323.016968,101.012421 
	C319.575043,101.012421 316.619934,101.012421 313.163971,101.012421 
	C313.163971,115.228065 313.236816,128.997223 313.070343,142.763474 
	C313.049927,144.453827 312.210175,146.936325 310.952698,147.653366 
	C307.692596,149.512360 304.717834,147.438156 304.703247,143.600983 
	C304.646332,128.617920 304.709991,113.634430 304.658325,98.651329 
	C304.646545,95.246681 306.164276,93.899368 309.528076,93.953529 
	C316.684906,94.068726 323.845673,94.051292 331.003113,93.955612 
	C333.615265,93.920692 335.131378,94.702408 335.190094,97.551277 
	C335.252258,100.566696 333.511475,101.133965 330.994629,101.033447 
	C328.501404,100.933861 326.001068,101.012146 323.016968,101.012421 
z"/>
<path fill="#F6F6F6" opacity="1.000000" stroke="none" 
	d="
M85.828110,98.367264 
	C85.754074,93.945549 88.599915,93.381058 91.231293,94.208946 
	C92.651436,94.655746 94.346519,97.097244 94.371605,98.663582 
	C94.608940,113.483536 94.468086,128.309052 94.549362,143.132355 
	C94.567238,146.391922 93.590324,148.115280 90.000084,148.065994 
	C86.209068,148.013931 85.781738,145.827972 85.795311,142.800446 
	C85.861053,128.143555 85.825348,113.486206 85.828110,98.367264 
z"/>
<path fill="#F8F8F8" opacity="1.000000" stroke="none" 
	d="
M114.578339,97.713821 
	C114.956665,93.612907 117.862526,93.424660 120.114769,94.225288 
	C121.512482,94.722145 123.054375,97.194664 123.078758,98.802429 
	C123.303589,113.627846 123.172050,128.458252 123.243927,143.286743 
	C123.258362,146.265106 122.514053,148.020813 119.101433,148.061859 
	C115.539803,148.104691 114.508636,146.415756 114.526619,143.137207 
	C114.608856,128.142212 114.564369,113.146523 114.578339,97.713821 
z"/>
<path fill="#F0F0F0" opacity="1.000000" stroke="none" 
	d="
M110.398499,119.849197 
	C109.467262,124.741737 106.274010,125.728882 102.491066,124.765877 
	C99.352928,123.967010 97.632530,121.185135 98.909248,118.242111 
	C99.705894,116.405701 102.184448,114.577972 104.205612,114.149658 
	C107.959190,113.354218 109.966286,115.834785 110.398499,119.849197 
z"/>
<path fill="#EFEFEF" opacity="1.000000" stroke="none" 
	d="
M244.208084,123.348633 
	C242.563828,124.099609 241.200500,124.908928 239.808426,124.961876 
	C235.982727,125.107384 233.753448,123.002853 233.901428,119.216576 
	C234.039322,115.688538 236.319031,113.917099 239.886002,113.975616 
	C243.753967,114.039062 245.704239,116.154335 245.736145,119.893211 
	C245.745117,120.945786 244.918991,122.005470 244.208084,123.348633 
z"/>
<path fill="#EFEFEF" opacity="1.000000" stroke="none" 
	d="
M324.170166,125.020721 
	C319.933319,124.372025 318.262054,121.954170 318.948547,118.289040 
	C319.558502,115.032547 321.984314,113.756447 325.238586,113.973740 
	C328.621521,114.199631 330.606812,116.184082 330.642792,119.347878 
	C330.685211,123.077393 328.401611,125.065842 324.170166,125.020721 
z"/>
</svg>